<svg width="44" height="50" viewBox="0 0 44 50" fill="none" xmlns="http://www.w3.org/2000/svg">
<path d="M13.7644 18.8504C16.3388 18.8504 18.4333 16.756 18.4333 14.1815C18.4333 11.6071 16.3388 9.5127 13.7644 9.5127C11.19 9.5127 9.09558 11.6071 9.09558 14.1815C9.09558 16.756 11.19 18.8504 13.7644 18.8504ZM13.7644 12.4425C14.7234 12.4425 15.5036 13.2227 15.5036 14.1816C15.5036 15.1406 14.7234 15.9208 13.7644 15.9208C12.8054 15.9208 12.0253 15.1406 12.0253 14.1816C12.0253 13.2227 12.8054 12.4425 13.7644 12.4425Z" fill="#61594D"/>
<path d="M24.0977 14.1817C24.0977 8.98144 20.236 4.6668 15.2296 3.95322V0H12.3V3.95312C7.29371 4.6667 3.4319 8.98135 3.4319 14.1816C3.4319 14.349 3.43385 27.4405 3.43385 27.4405H0.418518V30.3702H3.43395V42.9188L9.29332 47.0796V50H12.223V30.3702H15.3067V50H18.2364V47.0795L24.0958 42.9188V30.3702H27.1112V27.4405H24.0958C24.0958 27.4405 24.0977 14.2691 24.0977 14.1817ZM13.7648 6.77852C17.8469 6.77852 21.168 10.0996 21.168 14.1817C21.168 18.2639 17.8469 21.585 13.7648 21.585C9.68268 21.585 6.36158 18.2639 6.36158 14.1817C6.36158 10.0996 9.68268 6.77852 13.7648 6.77852ZM6.36364 41.4061V21.3842C7.20485 22.2484 8.19518 22.9668 9.29332 23.4961V43.4863L6.36364 41.4061ZM12.223 27.4405V24.3994C12.7261 24.475 13.241 24.5146 13.7649 24.5146C14.2888 24.5146 14.8036 24.475 15.3068 24.3994V27.4405H12.223ZM18.2364 43.4863V23.4961C19.3345 22.9668 20.3249 22.2484 21.1661 21.3842V41.4061L18.2364 43.4863Z" fill="#61594D"/>
<path d="M30.4769 0V50H43.584V0H30.4769ZM40.6543 47.0703H33.4066V43.9852H37.0304V41.0555H33.4066V38.1258H37.0304V35.1961H33.4066V32.2664H37.0304V29.3367H33.4066V26.407H37.0304V23.4773H33.4066V20.5477H37.0304V17.618H33.4066V14.6883H37.0304V11.7586H33.4066V8.82891H37.0304V5.89922H33.4066V2.92969H40.6543V47.0703Z" fill="#61594D"/>
</svg>
